PathFileType	4	(X/Y/Z)	D:\TRACE\v60_Jaco2_6-2-23\BothDRS_Motion3_1-v60.trc
DataRate	CameraRate	NumFrames	NumMarkers	Units	OrigDataRate	OrigDataStartFrame	OrigNumFrames
100.00	100.00	      27	9	mm	100.00	1	      7000
Frame#	Time	front left toe			Front right toe			aft left toe			aft right toe			Arm			FL body			FR body			AL Body			AR Body			
		X1	Y1	Z1	X2	Y2	Z2	X3	Y3	Z3	X4	Y4	Z4	X5	Y5	Z5	X6	Y6	Z6	X7	Y7	Z7	X8	Y8	Z8	X9	Y9	Z9	

1	0.000	-331.63675	64.78949	-217.12021	79.79002	66.60284	-231.53229	-296.22253	-43.39573	387.35535	99.42197	-44.26653	393.50156	-102.72806	1246.12842	-150.76880	-205.73805	640.04010	-365.61285	-47.09500	639.24713	-371.98816	-163.43793	474.62650	562.23938	-11.32648	465.47577	555.26306	
2	0.010	-331.63751	64.77616	-217.11607	79.76468	66.57164	-231.51810	-296.13525	-43.43859	387.36279	99.52660	-44.23100	393.50784	-102.70381	1246.13928	-150.75923	-205.75597	640.02875	-365.58820	-47.13153	639.24084	-371.98520	-163.46266	474.87640	562.77924	-11.31310	465.45825	555.26318	
3	0.020	-331.61960	64.75331	-217.13316	79.95592	66.73577	-231.45941	-296.13327	-43.41792	387.33560	99.49788	-44.22193	393.48065	-102.68423	1246.12634	-150.75366	-205.73917	639.99420	-365.56281	-47.07727	639.26245	-371.98788	-163.45018	474.66302	562.23181	-11.23282	465.46457	555.26276	
4	0.030	-331.61365	64.77272	-217.10524	80.05856	66.74995	-231.44202	-296.13162	-43.43095	387.33005	99.53311	-44.22515	393.49316	-102.73670	1246.12354	-150.75029	-205.74570	639.98480	-365.58191	-47.06693	639.23352	-371.97046	-163.38367	474.63730	562.22516	-11.24862	465.44379	555.26239	
5	0.040	-331.61136	64.76616	-217.10147	79.87215	66.67006	-231.49738	-296.14386	-43.45330	387.34418	99.50213	-44.23431	393.49463	-102.74060	1246.15356	-150.78423	-205.78079	640.03333	-365.61880	-47.10448	639.24243	-371.96930	-163.42134	474.66379	562.24786	-11.28173	465.47122	555.27393	
6	0.050	-331.61758	64.77705	-217.10703	79.87529	66.67226	-231.48297	-296.13678	-43.42893	387.37747	99.50259	-44.24903	393.51895	-102.76787	1246.14539	-150.77713	-205.74455	639.98138	-365.61261	-47.10370	639.23389	-371.94785	-163.44852	474.85977	562.76154	-11.24606	465.46042	555.26263	
7	0.060	-331.64600	64.78046	-217.12897	79.90214	66.62437	-231.45770	-296.15436	-43.40913	387.36273	99.47595	-44.23865	393.50705	-102.73582	1246.16321	-150.82021	-205.73137	640.01752	-365.57147	-47.05426	639.25934	-371.98294	-163.37807	474.62463	562.23761	-11.22498	465.45599	555.26141	
8	0.070	-331.64096	64.78655	-217.11162	79.94852	66.65782	-231.43655	-296.13553	-43.41411	387.36224	99.44954	-44.26752	393.51620	-102.69199	1246.12549	-150.75012	-205.77222	639.99872	-365.60266	-47.06491	639.23956	-371.99649	-163.40990	474.83768	562.77325	-11.17173	465.44876	555.25507	
9	0.080	-331.59521	64.74336	-217.11440	80.06302	66.73786	-231.43611	-296.15070	-43.43998	387.34299	99.51324	-44.25358	393.52838	-102.69556	1246.11841	-150.75366	-205.77139	639.98999	-365.60236	-47.07664	639.25824	-371.99246	-163.50694	474.87216	562.75336	-11.32639	465.46744	555.27283	
10	0.090	-331.62982	64.79126	-217.13712	79.91066	66.72655	-231.49664	-296.13101	-43.42057	387.34964	99.52779	-44.23610	393.51956	-102.75647	1246.14355	-150.79057	-205.87424	640.10443	-365.72244	-47.08207	639.21747	-371.98901	-163.46317	474.65857	562.23297	-11.30360	465.46945	555.26270	
11	0.100	-331.64166	64.79443	-217.11995	79.86047	66.63317	-231.48642	-296.14999	-43.44685	387.32376	99.47061	-44.27831	393.50748	-102.67750	1246.13879	-150.80063	-205.76141	640.01044	-365.58878	-47.06817	639.25714	-372.00241	-163.44987	474.64496	562.23260	-11.21968	465.43750	555.25128	
12	0.110	-331.61111	64.76662	-217.11101	79.97723	66.64658	-231.45894	-296.08963	-43.39804	387.35867	99.48515	-44.24935	393.51028	-102.73273	1246.13843	-150.77010	-205.74272	640.03180	-365.60651	-47.11475	639.25238	-371.99719	-163.41422	474.64575	562.24561	-11.29038	465.45764	555.26392	
13	0.120	-331.61758	64.78140	-217.10558	79.78813	66.58170	-231.51265	-296.15814	-43.39706	387.35718	99.48603	-44.27584	393.52399	-102.71937	1246.13733	-150.78777	-205.76714	640.01056	-365.59943	-47.09843	639.25507	-371.96765	-163.39709	474.63028	562.23395	-11.25537	465.47528	555.27209	
14	0.130	-331.59631	64.76276	-217.10588	79.85542	66.66634	-231.48418	-296.13846	-43.43461	387.34995	99.46165	-44.24513	393.49094	-102.70511	1246.10657	-150.77245	-205.78772	640.02216	-365.60599	-47.09304	639.23022	-371.99191	-163.44305	474.65179	562.24170	-11.34716	465.46808	555.28510	
15	0.140	-331.60516	64.75065	-217.11630	80.71510	66.97727	-231.15086	-296.08423	-43.42574	387.34009	99.48192	-44.25102	393.50894	-102.75874	1246.14087	-150.80479	-205.77931	640.03369	-365.59320	-47.07873	639.24042	-372.00241	-163.48891	474.69833	562.22675	-11.27817	465.45291	555.26410	
16	0.150	-331.62112	64.76397	-217.11740	80.05324	66.78796	-231.42146	-296.14203	-43.40074	387.36020	99.47845	-44.25510	393.50003	-102.71566	1246.12878	-150.81111	-205.75983	639.98322	-365.57498	-47.08737	639.26807	-372.00278	-163.47214	474.88556	562.75452	-11.38825	465.60770	555.14252	
17	0.160	-331.64771	64.76641	-217.11234	79.98203	66.70859	-231.43477	-296.11948	-43.44487	387.37274	99.47017	-44.25865	393.50974	-102.77542	1246.15784	-150.79340	-205.78987	640.04517	-365.65506	-47.10360	639.26483	-371.98846	-163.46202	474.63913	562.23669	-11.22276	465.44492	555.27856	
18	0.170	-331.60880	64.75019	-217.09914	79.91879	66.61942	-231.45251	-296.13779	-43.45404	387.32986	99.42999	-44.28678	393.52814	-102.70960	1246.13379	-150.75410	-205.79933	640.01166	-365.60272	-47.07143	639.24182	-371.99606	-163.43842	474.65369	562.24365	-11.28408	465.45200	555.27783	
19	0.180	-331.61191	64.77444	-217.10060	79.96736	66.65994	-231.45546	-296.10309	-43.44441	387.36969	99.46825	-44.26593	393.52603	-102.74374	1246.13708	-150.76909	-205.74304	639.97668	-365.59045	-47.08364	639.25549	-371.96924	-163.41826	474.82803	562.78418	-11.24987	465.45074	555.27368	
20	0.190	-331.63135	64.75240	-217.11496	80.00996	66.75069	-231.44646	-296.09518	-43.44323	387.36069	99.53703	-44.23082	393.52802	-102.72323	1246.13562	-150.77632	-205.74243	640.01379	-365.58365	-47.10301	639.24933	-371.99271	-163.38335	474.60593	562.23932	-11.26765	465.45874	555.26862	
21	0.200	-331.62119	64.77227	-217.11446	79.97252	66.67654	-231.44682	-296.13681	-43.41281	387.35736	99.49406	-44.23147	393.51431	-102.74749	1246.16199	-150.80359	-205.76224	640.01740	-365.62375	-47.07319	639.24261	-371.98325	-163.40778	474.68692	562.24121	-11.29918	465.47137	555.27368	
22	0.210	-331.62439	64.75166	-217.11470	79.81506	66.63805	-231.51898	-296.12173	-43.44687	387.33374	99.49891	-44.23723	393.51184	-102.71834	1246.11780	-150.77151	-205.78517	640.01788	-365.58807	-47.06886	639.24670	-371.98926	-163.37169	474.64844	562.22772	-11.23360	465.45883	555.28235	
23	0.220	-331.63065	64.76474	-217.12685	79.75130	66.57240	-231.53700	-296.13544	-43.43280	387.36356	99.47403	-44.25686	393.51700	-102.72095	1246.14111	-150.77855	-205.75998	640.01288	-365.61835	-47.10287	639.24670	-371.99838	-163.43141	474.63510	562.24622	-11.33614	465.46432	555.26563	
24	0.230	-331.63306	64.76997	-217.10556	79.89057	66.64408	-231.47829	-296.13135	-43.45200	387.32407	99.43775	-44.28570	393.53159	-102.72097	1246.13794	-150.78154	-205.74919	640.01550	-365.58679	-47.08249	639.23749	-371.97067	-163.47610	474.87222	562.75928	-11.20367	465.45795	555.24561	
25	0.240	-331.63922	64.75217	-217.10056	79.94631	66.67210	-231.45956	-296.15268	-43.44982	387.36435	99.46547	-44.25893	393.52246	-102.70877	1246.13086	-150.76225	-205.79584	640.02002	-365.59357	-47.08583	639.22791	-371.99203	-163.46313	474.86057	562.76184	-11.31500	465.45337	555.27747	
26	0.250	-331.61530	64.76858	-217.10292	79.91074	66.66047	-231.47487	-296.15131	-43.46460	387.35800	99.51486	-44.22578	393.50070	-102.75348	1246.14050	-150.77805	-205.78000	640.04541	-365.61835	-47.08977	639.24963	-371.99191	-163.48567	474.64917	562.23108	-11.22639	465.48566	555.26581	
27	0.260	-331.62534	64.78383	-217.11298	80.00046	66.74041	-231.45508	-296.09555	-43.45847	387.32709	99.49065	-44.23653	393.49872	-102.73257	1246.14758	-150.78568	-205.77203	640.01434	-365.59341	-47.05694	639.22247	-371.98389	-163.43936	474.63538	562.24811	-11.29074	465.47443	555.28766	
